<?xml version="1.0" encoding="UTF-8"?>
<svg version="1.1" xmlns="http://www.w3.org/2000/svg" width="128" height="128">
<path d="M0 0 C1.07765625 0.03609375 2.1553125 0.0721875 3.265625 0.109375 C4.49539063 0.17898438 4.49539063 0.17898438 5.75 0.25 C6.018125 0.889375 6.28625 1.52875 6.5625 2.1875 C7.63667752 4.58131686 7.63667752 4.58131686 10.75 5.25 C10.82476563 5.90226563 10.89953125 6.55453125 10.9765625 7.2265625 C11.79617382 12.67456717 12.7513866 16.65915803 17.05859375 20.3125 C18.9027748 21.49446481 18.9027748 21.49446481 22 21.4375 C26.0123381 20.16692627 29.5310319 18.50827279 33.22265625 16.50390625 C43.82071367 11.2458283 59.28613915 11.00958909 70.5546875 14.5234375 C75.25719772 16.27842553 79.57225927 18.46483951 83.75 21.25 C85.40549531 21.63499891 87.0722433 21.97793135 88.75 22.25 C89.41 20.93 90.07 19.61 90.75 18.25 C91.41 18.25 92.07 18.25 92.75 18.25 C94.68372082 14.72615338 95.34929612 11.4989865 95.9921875 7.56640625 C97.03295406 4.38509403 98.33912795 2.57620932 100.75 0.25 C103.84375 -0.4140625 103.84375 -0.4140625 107.25 -0.375 C108.93609375 -0.39433594 108.93609375 -0.39433594 110.65625 -0.4140625 C113.75 0.25 113.75 0.25 116.12109375 2.53515625 C118.57886387 6.63143978 118.42473108 8.52688243 117.75 13.25 C115.15739824 15.9827424 113.31064994 17.06311669 109.75 18.25 C107.41700175 18.28954234 105.08291811 18.29401732 102.75 18.25 C102.46125 18.848125 102.1725 19.44625 101.875 20.0625 C100.75 22.25 100.75 22.25 98.75 25.25 C99.05165037 29.45907495 100.81664895 32.24897309 103.0625 35.75 C110.55739178 48.34943742 112.7919498 60.61214334 109.30810547 74.86547852 C106.28830367 86.16419405 101.6934884 96.76482566 94.75 106.25 C94.09 106.25 93.43 106.25 92.75 106.25 C92.688125 106.806875 92.62625 107.36375 92.5625 107.9375 C91.4019231 111.24068042 89.34786554 112.96894733 86.75 115.25 C86.09 115.25 85.43 115.25 84.75 115.25 C84.255 116.735 84.255 116.735 83.75 118.25 C82 119.71484375 82 119.71484375 79.75 121.1875 C79.028125 121.67089844 78.30625 122.15429688 77.5625 122.65234375 C69.53669031 127.21144953 63.24050218 128.9725865 53.9375 128.875 C52.34627319 128.86569458 52.34627319 128.86569458 50.72290039 128.85620117 C42.34195195 128.62749515 36.6306407 127.23172453 29.75 122.25 C28.63044922 121.53650391 28.63044922 121.53650391 27.48828125 120.80859375 C25.5 119.5 25.5 119.5 22.75 117.25 C22.75 116.59 22.75 115.93 22.75 115.25 C22.16347656 114.99863281 21.57695312 114.74726562 20.97265625 114.48828125 C18.47235663 113.09531995 17.04240124 111.60777594 15.1875 109.4375 C14.31931641 108.43783203 14.31931641 108.43783203 13.43359375 107.41796875 C2.37321081 93.17548028 -5.52338305 73.33735464 -3.25 55.25 C-1.21847713 46.44973056 2.01858257 38.96336242 7.4921875 31.71484375 C9.14502906 28.47589026 8.72465709 26.69250805 7.75 23.25 C6.27109931 21.51973898 6.27109931 21.51973898 4.75 20.25 C4.75 19.59 4.75 18.93 4.75 18.25 C3.6775 18.29125 2.605 18.3325 1.5 18.375 C-3.14424834 18.22019172 -4.84151966 17.2672358 -8.5 14.625 C-10.67325333 11.67558476 -10.72543828 9.82195006 -10.78125 6.25 C-9.2595148 0.52111454 -5.34263405 -0.23228844 0 0 Z " fill="#dddddd" transform="translate(10.25,-0.25)"/>
</svg>
