<?xml version="1.0" encoding="UTF-8"?>
<svg id="_图层_1" data-name="图层 1" xmlns="http://www.w3.org/2000/svg" viewBox="0 0 300 300">
  <defs>
    <style>
      .cls-1 {
        fill: #ff847c;
        stroke-width: 0px;
      }
    </style>
  </defs>
  <g id="SvgjsG2009">
    <g>
      <path class="cls-1" d="m157.81,77.7c2.08-2.08,3.24-4.86,3.24-7.82,0-6.1-4.97-11.05-11.05-11.05s-11.05,4.97-11.05,11.05c0,2.96,1.15,5.73,3.24,7.82l37.74,37.75-7.82,7.82-37.74-37.75c-4-4-6.48-9.55-6.48-15.65h0c0-12.21,9.9-22.11,22.11-22.11s22.11,9.9,22.11,22.11c0,6.1-2.47,11.63-6.48,15.63l-7.82-7.8Z"/>
      <path class="cls-1" d="m157.81,77.7l1.51,1.51c2.49-2.47,3.87-5.82,3.87-9.34,0-7.28-5.92-13.19-13.19-13.19s-13.17,5.92-13.19,13.19h0c0,3.52,1.38,6.85,3.87,9.34l36.23,36.25-4.78,4.78-36.25-36.23c-3.63-3.63-5.84-8.62-5.84-14.12,0-.56-.22-1.12-.63-1.51s-.95-.63-1.51-.63-1.12.22-1.51.63-.63.95-.63,1.51h0c0,.56.22,1.12.63,1.51s.95.63,1.51.63,1.12-.22,1.51-.63.63-.95.63-1.51c.02-11.03,8.95-19.95,19.97-19.97,11.03.02,19.95,8.95,19.97,19.97,0,5.53-2.23,10.49-5.84,14.12l1.51,1.51,1.51-1.51-7.82-7.82-1.51,1.51,1.51,1.51-1.51-1.51-1.51,1.51,7.82,7.82c.39.39.95.63,1.51.63s1.12-.22,1.51-.63c4.39-4.39,7.11-10.46,7.11-17.16,0-13.4-10.85-24.25-24.25-24.25s-24.25,10.85-24.25,24.25c0,.56.22,1.12.63,1.51s.95.63,1.51.63,1.12-.22,1.51-.63.63-.95.63-1.51h0c0-.56-.22-1.12-.63-1.51s-.95-.63-1.51-.63-1.12.22-1.51.63-.63.95-.63,1.51c0,6.68,2.72,12.76,7.11,17.16l37.75,37.74c.84.84,2.2.84,3.03,0l7.82-7.82c.39-.39.63-.95.63-1.51s-.22-1.12-.63-1.51l-37.77-37.74c-1.69-1.69-2.61-3.91-2.62-6.31h0c0-4.91,4-8.91,8.91-8.91s8.91,4,8.91,8.91c0,2.4-.91,4.61-2.61,6.31-.41.41-.63.95-.63,1.51s.22,1.12.63,1.51l1.53-1.51Z"/>
      <path class="cls-1" d="m195.54,131.09c2.08,2.08,4.86,3.24,7.82,3.24,6.08,0,11.05-4.97,11.05-11.05s-4.95-11.05-11.03-11.05h0c-2.96,0-5.73,1.15-7.82,3.24l-37.75,37.74-7.82-7.82,37.75-37.74c4-4,9.53-6.48,15.63-6.48h0c12.21,0,22.11,9.9,22.11,22.12s-9.9,22.11-22.11,22.11c-6.1,0-11.63-2.47-15.63-6.48l7.8-7.83Z"/>
      <path class="cls-1" d="m195.54,131.09l-1.51,1.51c2.47,2.49,5.82,3.87,9.34,3.87,7.28,0,13.19-5.92,13.19-13.19s-5.9-13.19-13.17-13.19c-.58,0-1.12.22-1.51.63-.41.41-.63.95-.63,1.51h2.14v-2.14c-3.52,0-6.85,1.38-9.34,3.85h0l-36.25,36.25-4.78-4.78,36.23-36.25c3.63-3.61,8.6-5.84,14.12-5.84.99,0,1.86-.69,2.08-1.66.22-.97-.24-1.97-1.14-2.4h0l-.95,1.92v2.14c11.03.02,19.95,8.95,19.97,19.98-.02,11.03-8.95,19.95-19.97,19.97-5.53,0-10.49-2.23-14.12-5.84l-1.51,1.51,1.51,1.51,7.82-7.82-1.53-1.53-1.51,1.51,1.51-1.51-1.51-1.51-7.82,7.82c-.84.84-.84,2.2,0,3.03,4.37,4.39,10.46,7.11,17.16,7.11,13.4,0,24.25-10.85,24.25-24.25s-10.85-24.26-24.25-24.26c-.99,0-1.86.69-2.08,1.66-.22.97.24,1.97,1.14,2.4h0l.95-1.92v-2.14c-6.7,0-12.76,2.72-17.16,7.11l-37.74,37.74c-.39.39-.63.95-.63,1.51s.22,1.12.63,1.51l7.82,7.82c.84.84,2.2.84,3.03,0l37.74-37.74h0c1.71-1.69,3.91-2.61,6.31-2.61.56,0,1.12-.22,1.51-.63s.63-.95.63-1.51h-2.14v2.14c4.91,0,8.91,4,8.89,8.91,0,4.91-4,8.91-8.91,8.91-2.4,0-4.61-.91-6.31-2.61-.41-.41-.95-.63-1.51-.63s-1.12.22-1.51.63l1.51,1.51Z"/>
      <path class="cls-1" d="m104.42,115.46c-2.1-2.08-4.86-3.24-7.82-3.24-6.1,0-11.05,4.97-11.05,11.05s4.95,11.05,11.05,11.07h0c2.96,0,5.73-1.15,7.82-3.24l37.75-37.75,7.82,7.82-37.75,37.74c-4,4-9.55,6.48-15.65,6.48h0c-12.23,0-22.11-9.9-22.11-22.12s9.9-22.11,22.11-22.11c6.1,0,11.63,2.47,15.63,6.48l-7.8,7.83Z"/>
      <path class="cls-1" d="m104.42,115.46l1.51-1.51c-2.47-2.49-5.82-3.87-9.34-3.87-7.28,0-13.19,5.92-13.19,13.19s5.9,13.19,13.19,13.21c.58,0,1.12-.22,1.51-.63.41-.41.63-.95.63-1.51h-2.14v2.14c3.52,0,6.85-1.38,9.34-3.87h0l36.25-36.25,4.78,4.78-36.23,36.25h0c-3.63,3.61-8.62,5.84-14.12,5.86-.95,0-1.77.61-2.05,1.51s.07,1.88.86,2.4h0l1.19-1.77v-2.14c-11.03-.04-19.95-8.95-19.97-19.98.02-11.03,8.93-19.95,19.97-19.97,5.53,0,10.49,2.23,14.12,5.84l1.51-1.51-1.51-1.51-7.82,7.82,1.51,1.51,1.51-1.51-1.51,1.51,1.51,1.51,7.82-7.82c.41-.41.63-.95.63-1.51s-.22-1.12-.63-1.51c-4.39-4.37-10.46-7.11-17.16-7.09-13.4,0-24.25,10.85-24.25,24.25s10.85,24.26,24.25,24.26c.95,0,1.77-.61,2.05-1.51s-.07-1.88-.86-2.4h0l-1.19,1.77v2.14c6.68,0,12.76-2.72,17.16-7.11h0l37.75-37.74c.84-.84.84-2.2,0-3.03l-7.82-7.82c-.84-.84-2.2-.84-3.03,0l-37.74,37.72h0c-1.71,1.69-3.91,2.61-6.31,2.62-.56,0-1.12.22-1.51.63s-.63.95-.63,1.51h2.14v-2.14c-4.91,0-8.91-4-8.91-8.93s4-8.89,8.91-8.91c2.4,0,4.6.91,6.31,2.61.84.84,2.2.84,3.03,0l-1.53-1.51Z"/>
      <path class="cls-1" d="m203.38,87.34h-2.14,2.14v-2.14c-9.17,0-17.86,3.26-24.75,9.17l1.4,1.62,1.51-1.51-2.74-2.74-1.51,1.51,1.62,1.4c5.92-6.88,9.15-15.59,9.15-24.77h0c0-20.99-17.06-38.07-38.07-38.07s-38.07,17.08-38.07,38.07c0,9.17,3.27,17.86,9.17,24.75l1.62-1.4-1.51-1.51-2.74,2.74,1.51,1.51,1.4-1.62c-6.88-5.92-15.61-9.15-24.79-9.15-20.97,0-38.05,17.08-38.05,38.07s17.08,38.07,38.07,38.09c.56,0,1.12-.22,1.51-.63s.63-.95.63-1.51h-2.14v2.14c9.17,0,17.86-3.26,24.75-9.17l-1.4-1.62-1.51,1.51,2.74,2.74,1.51-1.51-1.62-1.4c-5.92,6.88-9.15,15.61-9.15,24.77,0,20.99,17.08,38.07,38.07,38.07s38.07-17.08,38.07-38.07c0-.56-.22-1.12-.63-1.51s-.95-.63-1.51-.63h0v2.14h2.14c0-9.17-3.26-17.86-9.17-24.75l-1.62,1.4,1.51,1.51,2.74-2.74-1.51-1.51-1.4,1.62c6.88,5.94,15.61,9.15,24.79,9.15h0c20.99,0,38.07-17.08,38.07-38.07s-17.08-38.07-38.07-38.09c-.56,0-1.12.22-1.51.63s-.63.95-.63,1.51h2.12v2.14c18.63.04,33.75,15.17,33.79,33.79-.04,18.63-15.17,33.75-33.79,33.79h0c-8.17,0-15.85-2.87-21.99-8.13-.86-.73-2.12-.69-2.9.11l-2.74,2.74c-.78.78-.84,2.07-.11,2.9,5.27,6.14,8.15,13.81,8.15,21.96,0,.56.22,1.12.63,1.51s.95.63,1.51.63h0v-2.14h-2.14c-.04,18.64-15.17,33.77-33.79,33.81-18.63-.04-33.77-15.17-33.79-33.79,0-8.17,2.87-15.85,8.13-21.99.73-.86.69-2.12-.11-2.9l-2.74-2.74c-.78-.78-2.07-.84-2.9-.11-6.14,5.27-13.81,8.15-21.96,8.15-.56,0-1.12.22-1.51.63s-.63.95-.63,1.51h2.14v-2.14c-18.64-.04-33.77-15.17-33.81-33.79.04-18.63,15.17-33.75,33.79-33.79,8.17,0,15.85,2.87,21.99,8.13.86.73,2.12.67,2.9-.11l2.74-2.74c.78-.78.84-2.07.11-2.9-5.27-6.12-8.15-13.81-8.15-21.96.04-18.64,15.17-33.77,33.79-33.81,18.63.04,33.75,15.17,33.79,33.79h0c0,8.17-2.87,15.87-8.11,21.99-.73.86-.69,2.12.11,2.9l2.74,2.74c.78.78,2.07.84,2.9.11,6.14-5.27,13.81-8.15,21.96-8.15.56,0,1.12-.22,1.51-.63s.63-.95.63-1.51h-2.14v2.14-2.14Z"/>
      <path class="cls-1" d="m142.18,168.82c-2.08,2.08-3.24,4.86-3.24,7.82,0,6.08,4.97,11.05,11.05,11.05s11.05-4.95,11.05-11.05h0c0-2.96-1.15-5.73-3.24-7.82l-37.75-37.74,7.82-7.82,37.75,37.75c4,4,6.48,9.53,6.48,15.63h0c0,12.21-9.9,22.11-22.11,22.11s-22.11-9.9-22.11-22.11c0-6.1,2.47-11.63,6.48-15.63l7.82,7.8Z"/>
      <path class="cls-1" d="m142.18,168.82l-1.51-1.51c-2.47,2.47-3.87,5.82-3.85,9.32,0,7.28,5.92,13.19,13.19,13.19s13.19-5.9,13.19-13.19c0-.58-.22-1.12-.63-1.51-.41-.41-.95-.63-1.51-.63h0v2.14h2.14c0-3.52-1.38-6.85-3.85-9.34h0l-36.27-36.21,4.78-4.8,36.23,36.25c3.63,3.63,5.86,8.6,5.86,14.12,0,1,.69,1.86,1.66,2.08s1.97-.26,2.4-1.15h0l-1.94-.93h-2.14c-.02,11.03-8.95,19.95-19.97,19.97-11.03-.02-19.95-8.95-19.97-19.97,0-5.53,2.23-10.49,5.84-14.12l-1.51-1.51-1.51,1.51,7.82,7.82,1.53-1.53-1.51-1.51,1.51,1.51,1.51-1.51-7.82-7.82c-.84-.84-2.2-.84-3.03,0-4.39,4.37-7.11,10.46-7.11,17.16,0,13.4,10.85,24.25,24.25,24.25s24.25-10.85,24.25-24.25c0-1-.69-1.86-1.66-2.08s-1.97.26-2.4,1.15h0l1.94.93h2.14c0-6.7-2.72-12.76-7.11-17.16l-37.74-37.75c-.41-.41-.95-.63-1.51-.63s-1.12.22-1.51.63l-7.82,7.82c-.84.84-.84,2.2,0,3.03l37.74,37.75h0c1.69,1.71,2.61,3.93,2.62,6.31,0,.56.22,1.12.63,1.51s.95.63,1.51.63h0v-2.14h-2.14c0,4.91-4,8.89-8.91,8.91-4.91,0-8.91-4-8.91-8.91,0-2.4.91-4.61,2.61-6.31.84-.84.84-2.2,0-3.03l-1.53,1.51Z"/>
      <path class="cls-1" d="m149.97,145.38l1.51-1.51-20.6-20.6,19.09-19.07,19.09,19.07-20.6,20.6,1.51,1.51,1.51-1.51-1.51,1.51,1.51,1.51,22.11-22.11c.39-.39.63-.95.63-1.51s-.22-1.12-.63-1.51l-22.11-22.12c-.84-.84-2.2-.84-3.03,0l-22.11,22.11c-.84.84-.84,2.2,0,3.03l22.12,22.12c.39.39.95.63,1.51.63s1.12-.22,1.51-.63l-1.51-1.53Z"/>
    </g>
  </g>
  <g id="SvgjsG2010">
    <path class="cls-1" d="m27.84,267.86c-.27,0-.54-.16-.65-.43l-10.82-32.45c-.11-.22-.05-.43.05-.65.16-.16.38-.27.59-.27h7.57c.27,0,.54.16.65.49l6.44,21.14,6.49-21.14c.11-.32.38-.49.65-.49h7.25c.22,0,.43.11.59.27.11.22.16.43.05.65l-10.98,32.45c-.11.27-.32.43-.65.43h-7.25Zm24.33,0v-32.39c0-1.35.27-1.62.7-1.62h23.69c.38,0,.7.27.7.65v6.11c0,.38-.32.7-.7.7h-16.01v5.62h10.11c.38,0,.7.32.7.7v6.06c0,.38-.32.7-.7.7h-10.11v5.79h15.95c.38,0,.7.32.7.7v6.06c0,.38-.32.7-.7.7h-23.63c-.43,0-.7-.32-.7.22Zm31.2,0c-.43,0-.7-.32-.7-.7v-32.39c0-.38.27-.7.7-.7h13.19c4.11,0,7.35,1.03,9.63,3.14,3.35,3.03,4.49,8.76,2.87,12.98-.59,1.51-1.62,2.92-2.92,3.95-.76.59-1.57,1.03-2.38,1.46,2.33,3.68,5.84,11.14,5.84,11.14.05.11.16.27.16.43,0,.38-.32.7-.7.7h-8c-.22,0-.49-.16-.59-.38l-4.7-10.33c-1.68.11-2.97.05-4.7.05v9.95c0,.38-.32.7-.7.7h-6.98Zm7.68-18.17s6.81.76,9.19-.81c.92-.59,1.46-2.05,1.46-3.14-.05-1.19-.65-2.43-1.62-3.19-1.03-.87-3.57-1.14-4.87-1.14l-4.16.11v8.17h0Zm24.88,18.17c-.38,0-.7-.32-.7-.7v-32.39c0-.38.32-.7.7-.7h7.03c.38,0,.7.32.7.7v32.39c0,.38-.32.7-.7.7h-7.03Zm27.58.32c-2.6,0-5.19-.49-7.68-1.46-2.49-.92-4.7-2.27-6.54-3.89-.22-.22-.27-.54-.16-.81l1.89-6.44c.11-.22.27-.38.49-.38.22-.05.43,0,.59.16,2.87,2.7,6.11,5.14,10.17,5.35,1.08.05,2.27.11,3.3-.22,3.19-1.03,1.84-4.27-.54-5.25-.81-.32-1.95-.7-3.41-1.14-2.16-.59-3.95-1.24-5.3-1.89-1.46-.65-2.7-1.68-3.79-3.03-1.03-1.41-1.57-3.24-1.57-5.46s.54-3.95,1.62-5.52,2.6-2.81,4.49-3.62,4.11-1.24,6.6-1.24c2.22,0,4.38.32,6.54,1.03,2.11.65,4,1.57,5.68,2.65.27.22.38.54.22.87l-1.78,6.06c-.05.22-.22.32-.43.38-.16.05-.38.05-.54-.05-2.43-1.51-4.87-3.35-7.73-3.73-1.89-.27-4.76-.16-5.41,2.11-.81,2.92,3.46,3.68,5.41,4.27,2.16.65,3.95,1.3,5.35,1.95,1.46.7,2.76,1.78,3.79,3.14,1.08,1.41,1.62,3.3,1.62,5.57s-.59,4.11-1.73,5.73c-1.08,1.62-2.65,2.81-4.6,3.68-1.95.76-4.11,1.19-6.54,1.19h0Zm18.28-.32v-32.39c0-1.35.27-1.62.7-1.62h23.69c.38,0,.7.27.7.65v6.11c0,.38-.32.7-.7.7h-16.01v5.62h10.11c.38,0,.7.32.7.7v6.06c0,.38-.32.7-.7.7h-10.11v5.79h15.95c.38,0,.7.32.7.7v6.06c0,.38-.32.7-.7.7h-23.63c-.43,0-.7-.32-.7.22h0Zm31.2,0c-.38,0-.7-.32-.7-.7v-32.39c0-.38.32-.7.7-.7h6.38c.22,0,.43.11.59.27l12.44,19.2v-18.76c0-.38.32-.7.7-.7h6.65c.38,0,.7.32.7.7v32.39c0,.38-.32.7-.7.7h-6.38c-.22,0-.43-.11-.59-.27l-12.38-19.09v18.66c0,.38-.32.7-.7.7h-6.71,0Zm47.32.32c-2.6,0-5.19-.49-7.68-1.46-2.49-.92-4.7-2.27-6.54-3.89-.22-.22-.27-.54-.16-.81l1.89-6.44c.11-.22.27-.38.49-.38.22-.05.43,0,.59.16,2.87,2.7,6.11,5.14,10.17,5.35,1.08.05,2.27.11,3.3-.22,3.19-1.03,1.84-4.27-.54-5.25-.81-.32-1.95-.7-3.41-1.14-2.16-.59-3.95-1.24-5.3-1.89-1.46-.65-2.7-1.68-3.79-3.03-1.03-1.41-1.57-3.24-1.57-5.46s.54-3.95,1.62-5.52,2.6-2.81,4.49-3.62,4.11-1.24,6.6-1.24c2.22,0,4.38.32,6.54,1.03,2.11.65,4,1.57,5.68,2.65.27.22.38.54.22.87l-1.78,6.06c-.05.22-.22.32-.43.38-.16.05-.38.05-.54-.05-2.43-1.51-4.87-3.35-7.73-3.73-1.89-.27-4.76-.16-5.41,2.11-.81,2.92,3.46,3.68,5.41,4.27,2.16.65,3.95,1.3,5.35,1.95,1.46.7,2.76,1.78,3.79,3.14,1.08,1.41,1.62,3.3,1.62,5.57s-.59,4.11-1.73,5.73c-1.08,1.62-2.65,2.81-4.6,3.68-1.95.76-4.11,1.19-6.54,1.19h0Zm18.28-.32v-32.39c0-1.35.27-1.62.7-1.62h23.69c.38,0,.7.27.7.65v6.11c0,.38-.32.7-.7.7h-16.01v5.62h10.11c.38,0,.7.32.7.7v6.06c0,.38-.32.7-.7.7h-10.11v5.79h15.95c.38,0,.7.32.7.7v6.06c0,.38-.32.7-.7.7h-23.63c-.43,0-.7-.32-.7.22h0Z"/>
  </g>
</svg>