<?xml version="1.0" encoding="UTF-8"?>
<svg id="_图层_1" data-name="图层 1" xmlns="http://www.w3.org/2000/svg" xmlns:xlink="http://www.w3.org/1999/xlink" viewBox="0 0 300 300">
  <defs>
    <style>
      .cls-1 {
        clip-path: url(#clippath);
      }

      .cls-2 {
        fill: none;
      }

      .cls-2, .cls-3 {
        stroke-width: 0px;
      }

      .cls-4 {
        clip-path: url(#clippath-1);
      }

      .cls-3 {
        fill: #ff847c;
      }
    </style>
    <clipPath id="clippath">
      <path class="cls-2" d="m575.6,115.92h0c-9.41,0-17.94,3.82-24.11,9.99l-8.83,8.83-50.95-50.9c-2.38-2.38-3.66-5.49-3.69-8.86,0-6.9,5.62-12.53,12.53-12.53s12.53,5.62,12.53,12.53c0,3.37-1.28,6.48-3.66,8.86-.58.58-.89,1.33-.89,2.12s.31,1.57.89,2.12l2.14-2.12-2.12,2.12,10.98,10.98c.55.55,1.33.89,2.12.89s1.57-.31,2.12-.89c6.17-6.17,9.99-14.7,9.99-24.11,0-18.83-15.24-34.07-34.07-34.07s-34.07,15.24-34.07,34.07c0,0,0,.01,0,.02,0,0,0,0,0,0,0,0,0,0,0,0,0,9.37,3.82,17.91,9.99,24.07l8.88,8.87-50.95,50.93c-2.41,2.38-5.49,3.66-8.86,3.69-6.9,0-12.53-5.62-12.53-12.55s5.62-12.5,12.53-12.53c3.37,0,6.46,1.28,8.86,3.66,1.18,1.18,3.09,1.18,4.26,0h-.01s10.97-10.98,10.97-10.98c.58-.58.89-1.33.89-2.12s-.31-1.57-.89-2.12c-6.17-6.14-14.7-9.99-24.11-9.96-18.83,0-34.07,15.24-34.07,34.07s15.24,34.1,34.07,34.1c9.39,0,17.94-3.82,24.11-9.99l8.91-8.9,50.9,50.92c2.38,2.41,3.66,5.52,3.69,8.86,0,6.9-5.62,12.5-12.53,12.53-6.9,0-12.53-5.62-12.53-12.53,0-3.37,1.28-6.48,3.66-8.86,1.18-1.18,1.18-3.09,0-4.26l-2.14,2.12,2.12-2.12-10.98-10.98c-1.18-1.18-3.09-1.18-4.26,0-6.17,6.14-9.99,14.7-9.99,24.11,0,18.83,15.24,34.07,34.07,34.07s34.07-15.24,34.07-34.07h.03c0-9.41-3.82-17.94-9.99-24.11l-8.85-8.85,50.92-50.92c2.41-2.38,5.49-3.66,8.86-3.66,6.9,0,12.53,5.62,12.5,12.53,0,6.9-5.62,12.53-12.53,12.53-3.37,0-6.48-1.28-8.86-3.66-.58-.58-1.33-.89-2.12-.89s-1.57.31-2.12.89l-10.98,10.98c-1.18,1.18-1.18,3.09,0,4.26,6.14,6.17,14.7,9.99,24.11,9.99,18.83,0,34.07-15.24,34.07-34.07s-15.24-34.1-34.07-34.1Zm-75.03,60.88l-26.79-26.8,26.8-26.78,26.8,26.78-26.81,26.81Zm75.05-80.31s-.02,0-.03,0h0c-11.95,0-23.31,3.94-32.61,11.13l-.02-.02c7.19-9.31,11.11-20.69,11.11-32.64,0-29.5-23.98-53.5-53.5-53.5s-53.5,24-53.5,53.5c0,11.95,3.96,23.31,11.14,32.61l-.02.02c-9.31-7.19-20.71-11.11-32.66-11.11-29.47,0-53.47,24-53.47,53.5s24,53.5,53.5,53.53c11.95,0,23.31-3.94,32.61-11.13l.02.02c-7.19,9.31-11.11,20.71-11.11,32.64,0,29.5,24,53.5,53.5,53.5s53.5-24,53.5-53.5c0-11.95-3.94-23.31-11.13-32.61h.01c9.31,7.2,20.72,11.09,32.67,11.09,29.5,0,53.5-24,53.5-53.5s-24-53.5-53.5-53.53Zm-.03,100.99c-11.48,0-22.28-4.03-30.91-11.43-1.2-1.02-2.98-.97-4.08.16l-3.84,3.84c-1.1,1.1-1.18,2.9-.16,4.08,7.4,8.63,11.45,19.4,11.45,30.86-.05,26.2-21.31,47.46-47.49,47.51-26.17-.05-47.46-21.31-47.49-47.49,0-11.48,4.03-22.28,11.43-30.91,1.02-1.2.97-2.98-.16-4.08l-3.84-3.84c-1.1-1.1-2.9-1.18-4.08-.16-8.63,7.4-19.4,11.45-30.86,11.45-26.2-.05-47.46-21.31-47.51-47.49.05-26.17,21.31-47.43,47.49-47.49,11.48,0,22.28,4.03,30.91,11.43,1.2,1.02,2.98.94,4.08-.16l3.84-3.84c1.1-1.1,1.18-2.9.16-4.08-7.4-8.6-11.45-19.4-11.45-30.86.05-26.2,21.31-47.46,47.49-47.51,26.17.05,47.43,21.31,47.49,47.49,0,11.48-4.03,22.3-11.4,30.91-1.02,1.2-.97,2.98.16,4.08l3.84,3.84c1.1,1.1,2.9,1.18,4.08.16,8.63-7.4,19.4-11.45,30.86-11.45h0c26.17.05,47.43,21.31,47.49,47.49-.05,26.17-21.31,47.43-47.49,47.49Z"/>
    </clipPath>
    <clipPath id="clippath-1">
      <rect class="cls-2" x="279.42" y="2.57" width="442.29" height="294.86"/>
    </clipPath>
  </defs>
  <g id="SvgjsG2009">
    <g>
      <path class="cls-3" d="m160.97,85.95c2.93-2.93,4.55-6.82,4.55-10.98,0-8.58-6.98-15.53-15.53-15.53s-15.53,6.98-15.53,15.53c0,4.16,1.62,8.05,4.55,10.98l53.03,53.06-10.98,10.98-53.03-53.06c-5.62-5.62-9.1-13.41-9.1-21.99h0c0-17.15,13.91-31.06,31.06-31.06s31.06,13.91,31.06,31.06c0,8.58-3.48,16.34-9.1,21.96l-10.98-10.96Z"/>
      <path class="cls-3" d="m160.97,85.95l2.12,2.12c3.5-3.48,5.44-8.18,5.44-13.13,0-10.22-8.32-18.54-18.54-18.54s-18.51,8.32-18.54,18.54h0c0,4.94,1.93,9.62,5.44,13.13l50.91,50.94-6.72,6.72-50.94-50.91c-5.1-5.1-8.21-12.11-8.21-19.85,0-.78-.31-1.57-.89-2.12s-1.33-.89-2.12-.89-1.57.31-2.12.89-.89,1.33-.89,2.12h0c0,.78.31,1.57.89,2.12s1.33.89,2.12.89,1.57-.31,2.12-.89.89-1.33.89-2.12c.03-15.51,12.58-28.03,28.06-28.06,15.51.03,28.03,12.58,28.06,28.06,0,7.77-3.14,14.75-8.21,19.85l2.12,2.12,2.12-2.12-10.98-10.98-2.12,2.12,2.12,2.12-2.12-2.12-2.12,2.12,10.98,10.98c.55.55,1.33.89,2.12.89s1.57-.31,2.12-.89c6.17-6.17,9.99-14.7,9.99-24.11,0-18.83-15.24-34.07-34.07-34.07s-34.07,15.24-34.07,34.07c0,.78.31,1.57.89,2.12s1.33.89,2.12.89,1.57-.31,2.12-.89.89-1.33.89-2.12h0c0-.78-.31-1.57-.89-2.12s-1.33-.89-2.12-.89-1.57.31-2.12.89-.89,1.33-.89,2.12c0,9.39,3.82,17.94,9.99,24.11l53.06,53.03c1.18,1.18,3.09,1.18,4.26,0l10.98-10.98c.55-.55.89-1.33.89-2.12s-.31-1.57-.89-2.12l-53.08-53.03c-2.38-2.38-3.66-5.49-3.69-8.86h0c0-6.9,5.62-12.53,12.53-12.53s12.53,5.62,12.53,12.53c0,3.37-1.28,6.48-3.66,8.86-.58.58-.89,1.33-.89,2.12s.31,1.57.89,2.12l2.14-2.12Z"/>
      <path class="cls-3" d="m214,160.97c2.93,2.93,6.82,4.55,10.98,4.55,8.55,0,15.53-6.98,15.53-15.53s-6.96-15.53-15.51-15.53h0c-4.16,0-8.05,1.62-10.98,4.55l-53.06,53.03-10.98-10.98,53.06-53.03c5.62-5.62,13.39-9.1,21.96-9.1h0c17.15,0,31.06,13.91,31.06,31.09s-13.91,31.06-31.06,31.06c-8.58,0-16.34-3.48-21.96-9.1l10.96-11.01Z"/>
      <path class="cls-3" d="m214,160.97l-2.12,2.12c3.48,3.5,8.18,5.44,13.13,5.44,10.22,0,18.54-8.32,18.54-18.54s-8.29-18.54-18.51-18.54c-.81,0-1.57.31-2.12.89-.58.58-.89,1.33-.89,2.12h3.01v-3.01c-4.94,0-9.62,1.93-13.13,5.41h0l-50.94,50.94-6.72-6.72,50.91-50.94c5.1-5.07,12.08-8.21,19.85-8.21,1.39,0,2.61-.97,2.93-2.33.31-1.36-.34-2.77-1.6-3.37h0l-1.33,2.69v3.01c15.51.03,28.03,12.58,28.06,28.08-.03,15.51-12.58,28.03-28.06,28.06-7.77,0-14.75-3.14-19.85-8.21l-2.12,2.12,2.12,2.12,10.98-10.98-2.14-2.14-2.12,2.12,2.12-2.12-2.12-2.12-10.98,10.98c-1.18,1.18-1.18,3.09,0,4.26,6.14,6.17,14.7,9.99,24.11,9.99,18.83,0,34.07-15.24,34.07-34.07s-15.24-34.1-34.07-34.1c-1.39,0-2.61.97-2.93,2.33-.31,1.36.34,2.77,1.6,3.37h0l1.33-2.69v-3.01c-9.41,0-17.94,3.82-24.11,9.99l-53.03,53.03c-.55.55-.89,1.33-.89,2.12s.31,1.57.89,2.12l10.98,10.98c1.18,1.18,3.09,1.18,4.26,0l53.03-53.03h0c2.41-2.38,5.49-3.66,8.86-3.66.78,0,1.57-.31,2.12-.89s.89-1.33.89-2.12h-3.01v3.01c6.9,0,12.53,5.62,12.5,12.53,0,6.9-5.62,12.53-12.53,12.53-3.37,0-6.48-1.28-8.86-3.66-.58-.58-1.33-.89-2.12-.89s-1.57.31-2.12.89l2.12,2.12Z"/>
      <path class="cls-3" d="m85.95,139c-2.95-2.93-6.82-4.55-10.98-4.55-8.58,0-15.53,6.98-15.53,15.53s6.96,15.53,15.53,15.56h0c4.16,0,8.05-1.62,10.98-4.55l53.06-53.06,10.98,10.98-53.06,53.03c-5.62,5.62-13.41,9.1-21.99,9.1h0c-17.18,0-31.06-13.91-31.06-31.09s13.91-31.06,31.06-31.06c8.58,0,16.34,3.48,21.96,9.1l-10.96,11.01Z"/>
      <path class="cls-3" d="m85.95,139l2.12-2.12c-3.48-3.5-8.18-5.44-13.13-5.44-10.22,0-18.54,8.32-18.54,18.54s8.29,18.54,18.54,18.57c.81,0,1.57-.31,2.12-.89.58-.58.89-1.33.89-2.12h-3.01v3.01c4.94,0,9.62-1.94,13.13-5.44h0l50.94-50.94,6.72,6.72-50.91,50.94h0c-5.1,5.07-12.11,8.21-19.85,8.24-1.33,0-2.48.86-2.88,2.12s.1,2.64,1.2,3.37h0l1.67-2.48v-3.01c-15.51-.05-28.03-12.58-28.06-28.08.03-15.51,12.55-28.03,28.06-28.06,7.77,0,14.75,3.14,19.85,8.21l2.12-2.12-2.12-2.12-10.98,10.98,2.12,2.12,2.12-2.12-2.12,2.12,2.12,2.12,10.98-10.98c.58-.58.89-1.33.89-2.12s-.31-1.57-.89-2.12c-6.17-6.14-14.7-9.99-24.11-9.96-18.83,0-34.07,15.24-34.07,34.07s15.24,34.1,34.07,34.1c1.33,0,2.48-.86,2.88-2.12s-.1-2.64-1.2-3.37h0l-1.67,2.48v3.01c9.39,0,17.94-3.82,24.11-9.99h0l53.06-53.03c1.18-1.18,1.18-3.09,0-4.26l-10.98-10.98c-1.18-1.18-3.09-1.18-4.26,0l-53.03,53h0c-2.41,2.38-5.49,3.66-8.86,3.69-.78,0-1.57.31-2.12.89s-.89,1.33-.89,2.12h3.01v-3.01c-6.9,0-12.53-5.62-12.53-12.55s5.62-12.5,12.53-12.53c3.37,0,6.46,1.28,8.86,3.66,1.18,1.18,3.09,1.18,4.26,0l-2.14-2.12Z"/>
      <path class="cls-3" d="m225.01,99.49h-3.01,3.01v-3.01c-12.89,0-25.1,4.58-34.78,12.89l1.96,2.27,2.12-2.12-3.84-3.84-2.12,2.12,2.27,1.96c8.32-9.67,12.87-21.91,12.87-34.8h0c0-29.5-23.98-53.5-53.5-53.5s-53.5,24-53.5,53.5c0,12.89,4.6,25.1,12.89,34.78l2.27-1.96-2.12-2.12-3.84,3.84,2.12,2.12,1.96-2.27c-9.67-8.32-21.94-12.87-34.83-12.87-29.47,0-53.47,24-53.47,53.5s24,53.5,53.5,53.53c.78,0,1.57-.31,2.12-.89s.89-1.33.89-2.12h-3.01v3.01c12.89,0,25.1-4.58,34.78-12.89l-1.96-2.27-2.12,2.12,3.84,3.84,2.12-2.12-2.27-1.96c-8.32,9.67-12.87,21.94-12.87,34.8,0,29.5,24,53.5,53.5,53.5s53.5-24,53.5-53.5c0-.78-.31-1.57-.89-2.12s-1.33-.89-2.12-.89h0v3.01h3.01c0-12.89-4.58-25.1-12.89-34.78l-2.27,1.96,2.12,2.12,3.84-3.84-2.12-2.12-1.96,2.27c9.67,8.34,21.94,12.87,34.83,12.87h0c29.5,0,53.5-24,53.5-53.5s-24-53.5-53.5-53.53c-.78,0-1.57.31-2.12.89s-.89,1.33-.89,2.12h2.98v3.01c26.17.05,47.43,21.31,47.49,47.49-.05,26.17-21.31,47.43-47.49,47.49h0c-11.48,0-22.28-4.03-30.91-11.43-1.2-1.02-2.98-.97-4.08.16l-3.84,3.84c-1.1,1.1-1.18,2.9-.16,4.08,7.4,8.63,11.45,19.4,11.45,30.86,0,.78.31,1.57.89,2.12s1.33.89,2.12.89h0v-3.01h-3.01c-.05,26.2-21.31,47.46-47.49,47.51-26.17-.05-47.46-21.31-47.49-47.49,0-11.48,4.03-22.28,11.43-30.91,1.02-1.2.97-2.98-.16-4.08l-3.84-3.84c-1.1-1.1-2.9-1.18-4.08-.16-8.63,7.4-19.4,11.45-30.86,11.45-.78,0-1.57.31-2.12.89s-.89,1.33-.89,2.12h3.01v-3.01c-26.2-.05-47.46-21.31-47.51-47.49.05-26.17,21.31-47.43,47.49-47.49,11.48,0,22.28,4.03,30.91,11.43,1.2,1.02,2.98.94,4.08-.16l3.84-3.84c1.1-1.1,1.18-2.9.16-4.08-7.4-8.6-11.45-19.4-11.45-30.86.05-26.2,21.31-47.46,47.49-47.51,26.17.05,47.43,21.31,47.49,47.49h0c0,11.48-4.03,22.3-11.4,30.91-1.02,1.2-.97,2.98.16,4.08l3.84,3.84c1.1,1.1,2.9,1.18,4.08.16,8.63-7.4,19.4-11.45,30.86-11.45.78,0,1.57-.31,2.12-.89s.89-1.33.89-2.12h-3.01v3.01-3.01Z"/>
      <path class="cls-3" d="m139,214c-2.93,2.93-4.55,6.82-4.55,10.98,0,8.55,6.98,15.53,15.53,15.53s15.53-6.96,15.53-15.53h0c0-4.16-1.62-8.05-4.55-10.98l-53.06-53.03,10.98-10.98,53.06,53.06c5.62,5.62,9.1,13.39,9.1,21.96h0c0,17.15-13.91,31.06-31.06,31.06s-31.06-13.91-31.06-31.06c0-8.58,3.48-16.34,9.1-21.96l10.98,10.96Z"/>
      <path class="cls-3" d="m139,214l-2.12-2.12c-3.48,3.48-5.44,8.18-5.41,13.1,0,10.22,8.32,18.54,18.54,18.54s18.54-8.29,18.54-18.54c0-.81-.31-1.57-.89-2.12-.58-.58-1.33-.89-2.12-.89h0v3.01h3.01c0-4.94-1.94-9.62-5.41-13.13h0l-50.96-50.89,6.72-6.75,50.91,50.94c5.1,5.1,8.24,12.08,8.24,19.85,0,1.41.97,2.61,2.33,2.93s2.77-.37,3.37-1.62h0l-2.72-1.31h-3.01c-.03,15.51-12.58,28.03-28.06,28.06-15.51-.03-28.03-12.58-28.06-28.06,0-7.77,3.14-14.75,8.21-19.85l-2.12-2.12-2.12,2.12,10.98,10.98,2.14-2.14-2.12-2.12,2.12,2.12,2.12-2.12-10.98-10.98c-1.18-1.18-3.09-1.18-4.26,0-6.17,6.14-9.99,14.7-9.99,24.11,0,18.83,15.24,34.07,34.07,34.07s34.07-15.24,34.07-34.07c0-1.41-.97-2.61-2.33-2.93s-2.77.37-3.37,1.62h0l2.72,1.31h3.01c0-9.41-3.82-17.94-9.99-24.11l-53.03-53.06c-.58-.58-1.33-.89-2.12-.89s-1.57.31-2.12.89l-10.98,10.98c-1.18,1.18-1.18,3.09,0,4.26l53.03,53.06h0c2.38,2.41,3.66,5.52,3.69,8.86,0,.78.31,1.57.89,2.12s1.33.89,2.12.89h0v-3.01h-3.01c0,6.9-5.62,12.5-12.53,12.53-6.9,0-12.53-5.62-12.53-12.53,0-3.37,1.28-6.48,3.66-8.86,1.18-1.18,1.18-3.09,0-4.26l-2.14,2.12Z"/>
      <path class="cls-3" d="m149.96,181.05l2.12-2.12-28.95-28.95,26.83-26.8,26.83,26.8-28.95,28.95,2.12,2.12,2.12-2.12-2.12,2.12,2.12,2.12,31.06-31.06c.55-.55.89-1.33.89-2.12s-.31-1.57-.89-2.12l-31.06-31.09c-1.18-1.18-3.09-1.18-4.26,0l-31.06,31.06c-1.18,1.18-1.18,3.09,0,4.26l31.09,31.09c.55.55,1.33.89,2.12.89s1.57-.31,2.12-.89l-2.12-2.14Z"/>
    </g>
  </g>
</svg>
